<?xml version="1.0" standalone="no"?>
<!DOCTYPE svg PUBLIC "-//W3C//DTD SVG 20010904//EN"
 "http://www.w3.org/TR/2001/REC-SVG-20010904/DTD/svg10.dtd">
<svg version="1.0" xmlns="http://www.w3.org/2000/svg"
 width="98.000000pt" height="120.000000pt" viewBox="0 0 98.000000 120.000000"
 preserveAspectRatio="xMidYMid meet">

<g transform="translate(0.000000,120.000000) scale(0.100000,-0.100000)"
fill="#000000" stroke="none">
<path d="M455 1055 c-20 -8 -53 -28 -72 -47 -55 -51 -73 -100 -73 -195 0 -47
-5 -85 -11 -88 -17 -11 -3 -96 38 -247 15 -53 15 -59 0 -76 -10 -10 -17 -28
-17 -39 0 -29 65 -143 96 -169 l25 -20 -28 -13 c-15 -7 -22 -15 -16 -19 14
-10 22 -38 25 -94 4 -89 31 -52 62 85 4 15 14 31 24 34 68 25 159 151 148 204
-3 17 -12 36 -19 44 -12 11 -11 23 6 77 11 35 25 77 33 93 7 17 16 54 20 83 5
41 4 52 -7 52 -11 0 -14 15 -11 73 5 94 -10 148 -55 198 -59 65 -109 84 -168
64z m-35 -104 c0 -18 -39 -75 -40 -57 0 5 -8 2 -17 -5 -9 -8 -14 -9 -10 -2 4
6 2 13 -5 15 -14 5 41 68 60 68 6 0 12 -9 12 -19z m197 -13 c23 -27 36 -58 24
-58 -5 0 -11 6 -14 13 -3 9 -9 9 -27 -1 -30 -18 -44 -3 -35 37 8 37 24 39 52
9z m20 -304 c-9 -9 -28 6 -21 18 4 6 10 6 17 -1 6 -6 8 -13 4 -17z m-132 7 c3
-5 1 -12 -5 -16 -5 -3 -10 1 -10 9 0 18 6 21 15 7z m-49 -59 c-11 -11 -16 -12
-16 -4 0 7 5 12 10 12 6 0 11 12 11 28 2 25 2 25 6 3 3 -13 -2 -30 -11 -39z
m73 4 c9 -11 6 -12 -14 -8 -14 2 -25 8 -25 13 0 14 26 11 39 -5z m41 -60 c0
-3 -4 -8 -10 -11 -5 -3 -10 -1 -10 4 0 6 5 11 10 11 6 0 10 -2 10 -4z m-103
-92 c-3 -3 -12 -4 -19 -1 -8 3 -5 6 6 6 11 1 17 -2 13 -5z m56 -1 c-7 -2 -21
-2 -30 0 -10 3 -4 5 12 5 17 0 24 -2 18 -5z"/>
<path d="M470 10 c0 -5 5 -10 10 -10 6 0 10 5 10 10 0 6 -4 10 -10 10 -5 0
-10 -4 -10 -10z"/>
</g>
</svg>
